<svg width="61" height="61" viewBox="0 0 61 61" fill="none" xmlns="http://www.w3.org/2000/svg">
<path fill-rule="evenodd" clip-rule="evenodd" d="M31.9142 1.58579C32.6953 2.36683 32.6953 3.63317 31.9142 4.41421L25.8031 10.5253C25.4567 10.8718 25.0147 11.0645 24.562 11.1036C25.7421 12.7363 26.3889 14.7098 26.3889 16.75C26.3889 19.3064 25.3734 21.7581 23.5657 23.5657C21.7581 25.3734 19.3064 26.3889 16.75 26.3889C14.1936 26.3889 11.7419 25.3734 9.93428 23.5657C8.12663 21.7581 7.11111 19.3064 7.11111 16.75C7.11111 14.1936 8.12663 11.7419 9.93428 9.93428C11.7419 8.12663 14.1936 7.11111 16.75 7.11111C18.7902 7.11111 20.7637 7.75792 22.3964 8.93798C22.4355 8.48527 22.6282 8.04335 22.9747 7.6969L29.0858 1.58579C29.8668 0.804738 31.1332 0.804738 31.9142 1.58579ZM16.75 22.3889C18.2455 22.3889 19.6798 21.7948 20.7373 20.7373C21.7948 19.6798 22.3889 18.2455 22.3889 16.75C22.3889 15.2545 21.7948 13.8202 20.7373 12.7627C19.6798 11.7052 18.2455 11.1111 16.75 11.1111C15.2545 11.1111 13.8202 11.7052 12.7627 12.7627C11.7052 13.8202 11.1111 15.2545 11.1111 16.75C11.1111 18.2455 11.7052 19.6798 12.7627 20.7373C13.8202 21.7948 15.2545 22.3889 16.75 22.3889ZM43.5454 3.82317C45.353 2.01552 47.8047 1 50.3611 1C52.9175 1 55.3692 2.01552 57.1768 3.82317C58.9845 5.63081 60 8.0825 60 10.6389C60 13.1953 58.9845 15.647 57.1768 17.4546C55.3692 19.2623 52.9175 20.2778 50.3611 20.2778C48.3209 20.2778 46.3474 19.631 44.7148 18.4509C44.6757 18.9036 44.4829 19.3455 44.1364 19.692L19.692 44.1364C19.3455 44.4829 18.9036 44.6757 18.4509 44.7148C19.631 46.3474 20.2778 48.3209 20.2778 50.3611C20.2778 52.9175 19.2623 55.3692 17.4546 57.1768C15.647 58.9845 13.1953 60 10.6389 60C8.0825 60 5.63081 58.9845 3.82317 57.1768C2.01552 55.3692 1 52.9175 1 50.3611C1 47.8047 2.01552 45.353 3.82317 43.5454C5.63081 41.7377 8.0825 40.7222 10.6389 40.7222C12.6791 40.7222 14.6526 41.369 16.2852 42.5491C16.3243 42.0964 16.5171 41.6545 16.8636 41.308L41.308 16.8636C41.6545 16.5171 42.0964 16.3243 42.5491 16.2852C41.369 14.6526 40.7222 12.6791 40.7222 10.6389C40.7222 8.0825 41.7377 5.63081 43.5454 3.82317ZM10.6389 56C12.1344 56 13.5687 55.4059 14.6262 54.3484C15.6837 53.2909 16.2778 51.8566 16.2778 50.3611C16.2778 48.8656 15.6837 47.4313 14.6262 46.3738C13.5687 45.3163 12.1344 44.7222 10.6389 44.7222C9.14336 44.7222 7.70909 45.3163 6.65159 46.3738C5.5941 47.4313 5 48.8656 5 50.3611C5 51.8566 5.5941 53.2909 6.65159 54.3484C7.70909 55.4059 9.14336 56 10.6389 56ZM50.3611 5C48.8656 5 47.4313 5.5941 46.3738 6.65159C45.3163 7.70909 44.7222 9.14336 44.7222 10.6389C44.7222 12.1344 45.3163 13.5687 46.3738 14.6262C47.4313 15.6837 48.8656 16.2778 50.3611 16.2778C51.8566 16.2778 53.2909 15.6837 54.3484 14.6262C55.4059 13.5687 56 12.1344 56 10.6389C56 9.14336 55.4059 7.70909 54.3484 6.65159C53.2909 5.5941 51.8566 5 50.3611 5ZM37.4343 37.4343C39.2419 35.6266 41.6936 34.6111 44.25 34.6111C46.8064 34.6111 49.2581 35.6266 51.0657 37.4343C52.8734 39.2419 53.8889 41.6936 53.8889 44.25C53.8889 46.8064 52.8734 49.2581 51.0657 51.0657C49.2581 52.8734 46.8064 53.8889 44.25 53.8889C42.2098 53.8889 40.2363 53.2421 38.6036 52.062C38.5645 52.5147 38.3718 52.9567 38.0253 53.3031L31.9142 59.4142C31.1332 60.1953 29.8668 60.1953 29.0858 59.4142C28.3047 58.6332 28.3047 57.3668 29.0858 56.5858L35.1969 50.4747C35.5433 50.1282 35.9853 49.9355 36.438 49.8964C35.2579 48.2637 34.6111 46.2902 34.6111 44.25C34.6111 41.6936 35.6266 39.2419 37.4343 37.4343ZM44.25 49.8889C45.7455 49.8889 47.1798 49.2948 48.2373 48.2373C49.2948 47.1798 49.8889 45.7455 49.8889 44.25C49.8889 42.7545 49.2948 41.3202 48.2373 40.2627C47.1798 39.2052 45.7455 38.6111 44.25 38.6111C42.7545 38.6111 41.3202 39.2052 40.2627 40.2627C39.2052 41.3202 38.6111 42.7545 38.6111 44.25C38.6111 45.7455 39.2052 47.1798 40.2627 48.2373C41.3202 49.2948 42.7545 49.8889 44.25 49.8889Z" fill="#00B2FF"/>
</svg>
