<svg
              width="50"
              height="50"
              viewBox="0 0 53 53"
              fill="none"
              xmlns="http://www.w3.org/2000/svg"
            >
              <path
                d="M3.78571 34.0715V37.8572H12.4664L0 50.3236L2.6765 53.0001L15.1429 40.5337V49.2144H18.9286V34.0715H3.78571Z"
                fill="#00B2FF"
              />
              <path
                d="M49.2151 18.9286H37.858C36.8543 18.9276 35.8919 18.5284 35.1822 17.8187C34.4724 17.1089 34.0733 16.1466 34.0723 15.1429V3.78571C34.0733 2.78199 34.4724 1.81966 35.1822 1.10992C35.8919 0.400175 36.8543 0.00100222 37.858 0H49.2151C50.2188 0.00100222 51.1812 0.400175 51.8909 1.10992C52.6007 1.81966 52.9998 2.78199 53.0008 3.78571V15.1429C52.9998 16.1466 52.6007 17.1089 51.8909 17.8187C51.1812 18.5284 50.2188 18.9276 49.2151 18.9286ZM37.858 3.78571V15.1429H49.2151V3.78571H37.858Z"
                fill="#00B2FF"
              />
              <path
                d="M41.6437 45.4287H26.5008V41.643H41.6437V28.393H11.358C10.3543 28.392 9.39192 27.9928 8.68218 27.283C7.97244 26.5733 7.57327 25.611 7.57227 24.6072V11.3572C7.57327 10.3535 7.97244 9.39119 8.68218 8.68145C9.39192 7.97171 10.3543 7.57254 11.358 7.57153H30.2866V11.3572H11.358V24.6072H41.6437C42.6474 24.6082 43.6098 25.0074 44.3195 25.7172C45.0292 26.4269 45.4284 27.3892 45.4294 28.393V41.643C45.4284 42.6467 45.0292 43.609 44.3195 44.3188C43.6098 45.0285 42.6474 45.4277 41.6437 45.4287Z"
                fill="#00B2FF"
              />
            </svg>