<svg width="55" height="55" viewBox="0 0 55 55" fill="none" xmlns="http://www.w3.org/2000/svg">
<path d="M20.8621 0C19.8759 0 18.8517 0.341379 18.131 1.06207C17.4103 1.78276 17.069 2.8069 17.069 3.7931V5.68966H0V43.6207H21.2414C20.9948 42.4069 20.8621 41.1362 20.8621 39.8276H3.7931V27.3862C4.91207 28.031 6.20172 28.4483 7.58621 28.4483H24.6741C25.7362 27.0069 27.0259 25.7172 28.4672 24.6552H7.58621C5.32931 24.6552 3.7931 23.119 3.7931 20.8621V9.48276H45.5172V20.8621C45.5172 21.1655 45.4983 21.45 45.4414 21.7155C46.8069 22.1328 48.0966 22.7017 49.3103 23.4034V5.68966H32.2414V3.7931C32.2414 2.8069 31.9 1.78276 31.1793 1.06207C30.4586 0.341379 29.4345 0 28.4483 0H20.8621ZM20.8621 3.7931H28.4483V5.68966H20.8621V3.7931ZM11.3793 17.069V22.7586H15.1724V17.069H11.3793ZM34.1379 17.069V21.7345C35.373 21.3485 36.6438 21.088 37.931 20.9569V17.069H34.1379ZM39.8276 24.6552C31.4638 24.6552 24.6552 31.4638 24.6552 39.8276C24.6552 48.1914 31.4638 55 39.8276 55C48.1914 55 55 48.1914 55 39.8276C55 31.4638 48.1914 24.6552 39.8276 24.6552ZM39.8276 28.4483C46.1241 28.4483 51.2069 33.531 51.2069 39.8276C51.2069 46.1241 46.1241 51.2069 39.8276 51.2069C33.531 51.2069 28.4483 46.1241 28.4483 39.8276C28.4483 33.531 33.531 28.4483 39.8276 28.4483ZM37.931 30.3448V41.7241H47.4138V37.931H41.7241V30.3448H37.931Z" fill="#00B2FF"/>
</svg>
