<svg width="50" height="50" viewBox="0 0 62 57" fill="none" xmlns="http://www.w3.org/2000/svg">
<path fill-rule="evenodd" clip-rule="evenodd" d="M0 8.609C0 7.51623 0.894221 6.63037 1.9973 6.63037H42.1545C43.2576 6.63037 44.1518 7.51623 44.1518 8.609C44.1518 9.70176 43.2576 10.5876 42.1545 10.5876H1.9973C0.894221 10.5876 0 9.70176 0 8.609Z" fill="#00B2FF"/>
<path fill-rule="evenodd" clip-rule="evenodd" d="M22.0755 0C23.1786 0 24.0728 0.885861 24.0728 1.97862V8.60892C24.0728 9.70169 23.1786 10.5875 22.0755 10.5875C20.9725 10.5875 20.0782 9.70169 20.0782 8.60892V1.97862C20.0782 0.885861 20.9725 0 22.0755 0Z" fill="#00B2FF"/>
<path fill-rule="evenodd" clip-rule="evenodd" d="M46.616 22.1008C47.4149 22.1008 48.137 22.5725 48.4518 23.3L61.8375 54.2414C62.272 55.2458 61.8024 56.409 60.7885 56.8395C59.7746 57.27 58.6004 56.8047 58.1659 55.8003L46.616 29.1024L35.066 55.8003C34.6315 56.8047 33.4573 57.27 32.4435 56.8395C31.4296 56.409 30.9599 55.2458 31.3944 54.2414L44.7802 23.3C45.0949 22.5725 45.817 22.1008 46.616 22.1008Z" fill="#00B2FF"/>
<path fill-rule="evenodd" clip-rule="evenodd" d="M35.3477 46.1808C35.3477 45.088 36.2419 44.2021 37.345 44.2021H55.8898C56.9929 44.2021 57.8871 45.088 57.8871 46.1808C57.8871 47.2735 56.9929 48.1594 55.8898 48.1594H37.345C36.2419 48.1594 35.3477 47.2735 35.3477 46.1808Z" fill="#00B2FF"/>
<path fill-rule="evenodd" clip-rule="evenodd" d="M35.0267 6.69336C36.0946 6.96686 36.7366 8.04624 36.4605 9.10423L34.6026 8.62842C36.4605 9.10424 36.4606 9.10376 36.4605 9.10423L36.4591 9.10957L36.4565 9.11964L36.4474 9.15381C36.4396 9.18276 36.4285 9.22397 36.4139 9.27694C36.3848 9.38288 36.342 9.53592 36.2851 9.73208C36.1715 10.1243 36.0015 10.6895 35.7728 11.3957C35.3154 12.8073 34.6213 14.7873 33.6687 17.0802C31.771 21.6478 28.8132 27.5408 24.5981 32.6524C20.4447 37.6893 16.187 41.4816 12.9646 44.0177C11.352 45.2868 9.99466 46.2445 9.03348 46.889C8.55276 47.2114 8.17076 47.4556 7.90504 47.6216C7.77216 47.7046 7.66832 47.768 7.59571 47.8119C7.5594 47.8338 7.5309 47.8509 7.51047 47.863L7.48592 47.8775L7.47825 47.882L7.47453 47.8842C7.47409 47.8845 7.47369 47.8847 6.45855 46.1807L7.47453 47.8842C6.52456 48.4396 5.29911 48.1274 4.73846 47.1863C4.17792 46.2454 4.49332 45.0325 5.44289 44.477C5.44272 44.4771 5.44307 44.4769 5.44289 44.477L5.45592 44.4693C5.46818 44.462 5.48842 44.4499 5.51638 44.433C5.57231 44.3993 5.65911 44.3463 5.7746 44.2741C6.00561 44.1299 6.35128 43.909 6.79433 43.6119C7.68066 43.0176 8.95512 42.1191 10.4798 40.9192C13.532 38.517 17.5707 34.9194 21.5045 30.1489C25.3766 25.4532 28.1565 19.9503 29.9748 15.574C30.8801 13.3949 31.5385 11.5159 31.9692 10.1864C32.1845 9.5221 32.3424 8.99622 32.4456 8.64009C32.4972 8.46206 32.5351 8.32656 32.5596 8.23751C32.5718 8.19299 32.5807 8.16009 32.5863 8.1393L32.5921 8.11728L32.5931 8.11379" fill="#00B2FF"/>
<path fill-rule="evenodd" clip-rule="evenodd" d="M14.9287 16.5452L14.9327 16.5528L14.952 16.5895C14.97 16.6235 14.9983 16.6766 15.0368 16.7478C15.1137 16.8902 15.2315 17.1051 15.3898 17.3855C15.7064 17.9463 16.1849 18.7688 16.823 19.7971C18.0998 21.8546 20.0124 24.731 22.5422 27.9823C25.048 31.2026 27.4861 33.7182 29.2928 35.4243C30.1954 36.2767 30.9382 36.925 31.4503 37.3563C31.7062 37.5718 31.9042 37.733 32.0355 37.8381C32.1011 37.8906 32.15 37.9292 32.1811 37.9535L32.2142 37.9792L32.2196 37.9834C33.0926 38.651 33.2547 39.8935 32.5811 40.7586C31.9073 41.6238 30.6531 41.7842 29.7797 41.1167L30.9997 39.5501C29.7797 41.1167 29.78 41.1169 29.7797 41.1167L29.7767 41.1144L29.7718 41.1107L29.7569 41.0991L29.7061 41.0597C29.6632 41.0261 29.6022 40.978 29.5243 40.9156C29.3685 40.7909 29.145 40.6088 28.8628 40.3712C28.2985 39.8959 27.4989 39.1975 26.5366 38.2887C24.6134 36.4725 22.0318 33.8082 19.3785 30.3982C16.7492 27.0191 14.7576 24.025 13.42 21.8695C12.751 20.7913 12.2447 19.9217 11.9034 19.317C11.7327 19.0147 11.6032 18.7785 11.5151 18.6155C11.471 18.534 11.4373 18.4707 11.414 18.4267L11.3869 18.3751L11.3791 18.3603L11.3759 18.3541C11.3757 18.3538 11.3753 18.3529 13.152 17.4491L11.3753 18.3529C10.8714 17.3808 11.2584 16.1881 12.2396 15.689C13.2206 15.1899 14.4246 15.5738 14.9287 16.5452Z" fill="#00B2FF"/>
</svg>
