<svg
              width="107"
              height="107"
              viewBox="0 0 107 107"
              fill="none"
              xmlns="http://www.w3.org/2000/svg"
            >
              <path
                fill-rule="evenodd"
                clip-rule="evenodd"
                d="M91.7981 57.1937C91.898 57.3217 92.1434 57.8705 92.2288 58.1344C92.5461 59.1232 92.6399 60.2218 92.7498 61.3236C93.2895 66.7429 93.7332 71.167 94.1581 76.683C94.2328 77.6414 94.3262 78.5013 94.365 79.7292C94.3984 80.8107 94.276 81.9477 93.5288 82.2702C92.6571 82.6461 91.6103 81.8378 90.9644 81.3763C88.6677 79.7306 86.7158 77.653 84.5775 75.8449C82.5189 74.1004 80.2935 72.4862 78.1191 70.466C77.5044 69.8928 76.4036 69.0039 76.3822 68.0105C76.3584 66.823 79.3857 65.5073 80.6326 64.8593C82.0778 64.1078 83.1357 63.4611 84.5332 62.8218C84.9774 62.6208 85.5346 62.5835 85.9699 62.3266C86.3507 62.1064 86.7548 61.3643 87.1474 60.8278C87.9222 59.7728 88.6706 58.8783 89.5462 57.9407C89.9415 57.5149 91.0802 56.2874 91.7981 57.1937Z"
                fill="#00B2FF"
              />
              <path
                fill-rule="evenodd"
                clip-rule="evenodd"
                d="M91.7981 57.1937C91.898 57.3217 92.1434 57.8705 92.2288 58.1344C92.5461 59.1232 92.6399 60.2218 92.7498 61.3236C93.2895 66.7429 93.7332 71.167 94.1581 76.683C94.2328 77.6414 94.3262 78.5013 94.365 79.7292C94.3984 80.8107 94.276 81.9477 93.5288 82.2702C92.6571 82.6461 91.6103 81.8378 90.9644 81.3763C88.6677 79.7306 86.7158 77.653 84.5775 75.8449C82.5189 74.1004 80.2935 72.4862 78.1191 70.466C77.5044 69.8928 76.4036 69.0039 76.3822 68.0105C76.3584 66.823 79.3857 65.5073 80.6326 64.8593C82.0778 64.1078 83.1357 63.4611 84.5332 62.8218C84.9774 62.6208 85.5346 62.5835 85.9699 62.3266C86.3507 62.1064 86.7548 61.3643 87.1474 60.8278C87.9222 59.7728 88.6706 58.8783 89.5462 57.9407C89.9415 57.5149 91.0802 56.2874 91.7981 57.1937Z"
                fill="#00B2FF"
              />
              <path
                opacity="0.42"
                fill-rule="evenodd"
                clip-rule="evenodd"
                d="M91.7981 57.1937C91.898 57.3217 92.1434 57.8705 92.2288 58.1344C92.5461 59.1232 92.6399 60.2218 92.7498 61.3236C93.2895 66.7429 93.7332 71.167 94.1581 76.683C94.2328 77.6414 94.3262 78.5013 94.365 79.7292C94.3984 80.8107 94.276 81.9477 93.5288 82.2702C92.6571 82.6461 91.6103 81.8378 90.9644 81.3763C88.6677 79.7306 86.7158 77.653 84.5775 75.8449C82.5189 74.1004 80.2935 72.4862 78.1191 70.466C77.5044 69.8928 76.4036 69.0039 76.3822 68.0105C76.3584 66.823 79.3857 65.5073 80.6326 64.8593C82.0778 64.1078 83.1357 63.4611 84.5332 62.8218C84.9774 62.6208 85.5346 62.5835 85.9699 62.3266C86.3507 62.1064 86.7548 61.3643 87.1474 60.8278C87.9222 59.7728 88.6706 58.8783 89.5462 57.9407C89.9415 57.5149 91.0802 56.2874 91.7981 57.1937Z"
                fill="white"
              />
              <path
                fill-rule="evenodd"
                clip-rule="evenodd"
                d="M81.7839 61.2848C82.2775 61.0002 82.7732 61.305 83.1939 61.3896C83.6406 61.4788 84.0997 61.5183 84.5898 61.6292C85.3846 61.8015 86.6598 61.9565 87.2103 62.4975C87.4369 62.723 87.7585 63.3825 87.9657 63.7723C88.7314 65.206 89.1556 66.8835 89.6794 68.5142C90.9756 72.5537 92.6046 76.975 93.4718 81.1199C93.529 81.39 93.7407 81.9133 93.4965 82.0227C93.1058 82.1964 92.8009 81.5453 92.5697 81.1455C89.0884 75.1146 85.9436 68.294 82.3482 62.5644C82.1068 62.1828 81.6678 61.8148 81.7839 61.2848Z"
                fill="#00B2FF"
              />
              <path
                fill-rule="evenodd"
                clip-rule="evenodd"
                d="M81.7839 61.2848C82.2775 61.0002 82.7732 61.305 83.1939 61.3896C83.6406 61.4788 84.0997 61.5183 84.5898 61.6292C85.3846 61.8015 86.6598 61.9565 87.2103 62.4975C87.4369 62.723 87.7585 63.3825 87.9657 63.7723C88.7314 65.206 89.1556 66.8835 89.6794 68.5142C90.9756 72.5537 92.6046 76.975 93.4718 81.1199C93.529 81.39 93.7407 81.9133 93.4965 82.0227C93.1058 82.1964 92.8009 81.5453 92.5697 81.1455C89.0884 75.1146 85.9436 68.294 82.3482 62.5644C82.1068 62.1828 81.6678 61.8148 81.7839 61.2848Z"
                fill="#00B2FF"
              />
              <path
                d="M12.2344 30.1375C24.351 27.4856 53.2412 33.9939 52.339 53.8183C51.5569 71.003 33.5202 69.5996 32.2954 56.9571C31.0706 44.3147 63.7746 25.6045 81.2138 57.9036"
                stroke="#003294"
                stroke-width="5"
                stroke-linecap="round"
                stroke-dasharray="11 11"
              />
            </svg>