<svg width="161" height="148" viewBox="0 0 161 148" fill="none" xmlns="http://www.w3.org/2000/svg">
<g clip-path="url(#clip0_1_217)">
<path d="M0 87.4232C1.63064 78.3505 8.03624 74.0138 15.9693 70.9574C36.8098 62.9241 53.3846 49.6041 65.377 30.6739C66.7256 28.5537 68.1842 26.4886 69.7185 24.4992C72.5257 20.8852 75.9039 19.6943 79.5918 22.317C83.7957 25.3114 87.9927 28.8772 90.8549 33.1038C104.031 52.5434 112.074 74 113.932 97.5285C114.227 101.308 113.505 105.328 112.452 109.011C110.567 115.619 106.57 117.546 99.82 115.949C92.1622 114.139 84.5663 111.86 76.8121 110.766C70.4065 109.864 63.7945 110.243 57.2857 110.339C54.2997 110.38 52.8273 115.061 55.1735 117.443C57.5403 119.852 58.3178 122.379 57.4577 125.532C56.9004 127.569 57.7673 128.643 59.6182 129.538C64.6133 131.961 65.6041 135.045 61.9575 139.306C59.0677 142.686 55.1047 145.143 51.6163 148.007H48.1762C44.7016 146.348 42.4311 143.588 41.1238 140.049C39.5 135.678 37.8763 131.3 36.5002 126.846C35.3374 123.081 34.5187 119.205 33.521 115.268C32.1174 115.681 31.0235 115.977 29.9432 116.321C17.7857 120.176 8.97197 116.479 3.5365 104.901C1.96778 101.556 1.16966 97.8521 0.020641 94.3139C0.020641 92.0216 0.020641 89.7224 0.020641 87.4301L0 87.4232ZM66.9664 38.4456C66.6017 38.5626 66.4503 38.5695 66.3884 38.6452C65.9618 39.1753 65.5421 39.7122 65.1362 40.256C57.7949 50.2374 49.1876 58.9797 38.4749 65.2301C29.6543 70.3792 20.3796 74.7434 11.2494 79.3486C7.83671 81.0696 6.0203 83.885 5.61436 87.4301C4.73368 95.1674 6.61201 102.237 11.8686 108.143C14.9441 111.599 18.7627 113.389 23.5308 112.225C26.6338 111.468 29.7506 110.78 32.8261 109.947C36.9268 108.839 37.6561 109.224 38.5437 113.223C39.2111 116.232 39.7202 119.295 40.6559 122.22C42.493 127.961 44.4745 133.668 46.635 139.299C47.3436 141.137 48.6991 143.594 51.1829 142.059C53.99 140.332 56.3362 137.84 59.8521 134.859C52.5314 133.379 51.6851 129.111 52.2562 123.921C52.3594 122.998 51.6782 121.821 51.0384 121.009C48.2656 117.471 48.1486 110.167 51.0934 106.849C51.7746 106.085 53.0199 105.555 54.0657 105.431C64.2418 104.213 74.3834 104.22 84.4287 106.601C86.885 107.186 89.3619 107.675 92.1347 108.281C76.4819 87.3407 68.7277 64.1012 66.9595 38.4662L66.9664 38.4456ZM75.8833 62.2564C84.525 61.3408 89.6715 63.282 92.1828 68.8716C95.8913 77.1321 93.3112 83.9539 86.2795 89.4677C90.2288 96.9503 94.6666 103.827 100.9 109.382C104.223 112.349 106.411 111.95 107.409 107.503C108.42 103.008 109.088 98.1412 108.496 93.6255C105.703 72.3479 98.2513 52.7224 85.963 35.0794C83.8576 32.0506 80.8165 29.6069 77.968 27.1838C76.1035 25.6006 74.3559 26.1513 73.6128 28.6913C73.3582 29.5656 73.0899 30.4398 72.9316 31.3347C71.067 41.8668 73.5165 51.9583 75.8902 62.2633L75.8833 62.2564Z" fill="#00B2FF"/>
<path d="M125.91 0C128.841 2.80856 128.903 4.00633 125.835 6.60149C119.993 11.544 114.055 16.3764 108.173 21.2776C106.411 22.7438 104.588 23.5836 102.82 21.4841C101.017 19.3501 102.242 17.7325 104.003 16.2938C110.622 10.8694 117.234 5.43126 123.846 0C124.534 0 125.222 0 125.91 0Z" fill="#00B2FF"/>
<path d="M161 99.1256C159.576 99.8484 158.186 101.108 156.714 101.204C149.751 101.673 142.774 101.796 135.797 102.106C133.589 102.203 131.655 101.618 131.573 99.222C131.483 96.7232 133.362 95.7663 135.722 95.6906C142.464 95.4772 149.214 95.0849 155.957 95.0986C157.642 95.0986 159.321 96.3721 161 97.0605V99.1256Z" fill="#00B2FF"/>
<path d="M117.351 40.2284C116.732 39.6433 115.294 38.9068 115.067 37.8948C114.833 36.8416 115.411 34.9417 116.257 34.4254C123.069 30.2814 129.97 26.2751 136.994 22.5166C137.937 22.0141 140.366 22.6818 140.958 23.5698C141.542 24.4441 141.157 27.0874 140.352 27.5899C133.486 31.8372 126.426 35.7815 119.408 39.7948C119.037 40.0081 118.528 39.9875 117.351 40.2215V40.2284Z" fill="#00B2FF"/>
<path d="M153.521 49.6867C152.991 50.2099 152.186 51.6073 151.03 52.0272C144.095 54.581 137.063 56.894 130.08 59.3239C127.981 60.0536 126.124 59.5373 125.869 57.3827C125.724 56.1368 126.825 53.9064 127.899 53.4934C134.896 50.7881 142.024 48.3995 149.152 46.0452C151.643 45.2261 153.425 46.5064 153.521 49.6936V49.6867Z" fill="#00B2FF"/>
<path d="M133.444 80.0784C132.797 79.3625 131.174 78.3506 130.837 77.0082C130.286 74.8399 131.903 73.8486 134.05 73.5733C140.38 72.7472 146.696 71.7904 153.019 70.9506C155.255 70.6546 157.732 70.6064 158.103 73.5251C158.475 76.3818 156.294 76.9807 153.913 77.2767C147.466 78.089 141.04 79.032 133.444 80.0853V80.0784Z" fill="#00B2FF"/>
</g>
<defs>
<clipPath id="clip0_1_217">
<rect width="161" height="148" fill="white"/>
</clipPath>
</defs>
</svg>